Coordinates
version=1
nRows=27
nColumns=12
inDegrees=yes

Units are S.I. units (second, meters, Newtons, ...)
Angles are in degrees

endheader
time	SC_y	SC_z	SC_x	AC_y	AC_z	AC_x	GH_y	GH_z	GH_yy	EL_x	PS_y
       0.0              -28.09          12.91          20.48          36.97         -13.74         -6.227          128.4          16.08          175.9          29.35          50.91
   0.02891              -28.09          12.91          20.48          36.97         -13.74         -6.226          128.4          16.09          175.9          29.36           50.9
   0.05781              -28.09          12.91          20.48          36.97         -13.74         -6.224          128.4           16.1          175.9          29.37          50.89
   0.08672              -28.09          12.92          20.48          36.97         -13.74         -6.222          128.4          16.11          175.9          29.37          50.89
    0.1156              -28.09          12.92          20.48          36.97         -13.74          -6.22          128.4          16.12          175.8          29.38          50.88
    0.1445              -28.09          12.92          20.48          36.97         -13.74         -6.217          128.4          16.13          175.8          29.39          50.87
    0.1734              -28.09          12.93          20.48          36.97         -13.74         -6.215          128.4          16.14          175.8           29.4          50.86
    0.2023              -28.08          12.93          20.48          36.97         -13.73         -6.212          128.4          16.16          175.8          29.41          50.85
    0.2312              -28.08          12.94          20.48          36.97         -13.73         -6.209          128.5          16.17          175.8          29.42          50.85
    0.2602              -28.08          12.94          20.48          36.97         -13.73         -6.206          128.5          16.19          175.8          29.43          50.84
    0.2891              -28.08          12.95          20.48          36.97         -13.73         -6.203          128.5          16.21          175.8          29.44          50.82
     0.318              -28.08          12.95          20.47          36.97         -13.73           -6.2          128.5          16.23          175.8          29.45          50.81
    0.3469              -28.08          12.96          20.47          36.97         -13.72         -6.196          128.5          16.25          175.7          29.47           50.8
    0.3758              -28.08          12.97          20.47          36.97         -13.72         -6.192          128.5          16.27          175.7          29.48          50.79
    0.4047              -28.07          12.98          20.47          36.98         -13.72         -6.187          128.5          16.29          175.7           29.5          50.77
    0.4336              -28.07          12.98          20.47          36.98         -13.72         -6.183          128.6          16.32          175.7          29.51          50.76
    0.4625              -28.07          12.99          20.47          36.98         -13.71         -6.177          128.6          16.34          175.7          29.53          50.74
    0.4914              -28.07           13.0          20.47          36.98         -13.71         -6.172          128.6          16.38          175.6          29.55          50.72
    0.5203              -28.06          13.01          20.46          36.98         -13.71         -6.166          128.6          16.41          175.6          29.57           50.7
    0.5492              -28.06          13.02          20.46          36.98          -13.7         -6.159          128.7          16.44          175.6           29.6          50.68
    0.5781              -28.06          13.04          20.46          36.98          -13.7         -6.151          128.7          16.48          175.5          29.62          50.65
     0.607              -28.06          13.05          20.46          36.99         -13.69         -6.143          128.7          16.53          175.5          29.65          50.63
    0.6359              -28.05          13.07          20.45          36.99         -13.69         -6.134          128.8          16.58          175.5          29.68           50.6
    0.6648              -28.05          13.08          20.45          36.99         -13.68         -6.124          128.8          16.63          175.4          29.72          50.56
    0.6937              -28.04           13.1          20.45          36.99         -13.68         -6.113          128.8          16.69          175.4          29.76          50.53
    0.7226              -28.04          13.12          20.44           37.0         -13.67         -6.101          128.9          16.76          175.3           29.8          50.49
    0.7516              -28.03          13.15          20.44           37.0         -13.66         -6.087          129.0          16.83          175.2          29.85          50.44
